<?xml version="1.0" encoding="utf-8"?>
<svg version="1.1" xmlns:xlink="http://www.w3.org/1999/xlink" width="53px" height="39px" xmlns="http://www.w3.org/2000/svg">
  <defs>
    <filter x="100px" y="389px" width="53px" height="39px" filterUnits="userSpaceOnUse" id="filter21">
      <feOffset dx="4" dy="4" in="SourceAlpha" result="shadowOffsetInner" />
      <feGaussianBlur stdDeviation="2.5" in="shadowOffsetInner" result="shadowGaussian" />
      <feComposite in2="shadowGaussian" operator="atop" in="SourceAlpha" result="shadowComposite" />
      <feColorMatrix type="matrix" values="0 0 0 0 0  0 0 0 0 0  0 0 0 0 0  0 0 0 0.313725490196078 0  " in="shadowComposite" />
    </filter>
    <g id="widget22">
      <path d="M 42.0506114130435 11.6241976893453  C 42.6835371376812 12.0895378690629  43 12.6510483525888  43 13.308729139923  L 43 15.691270860077  C 43 16.3489516474112  42.6835371376812 16.9104621309371  42.0506114130435 17.3758023106547  C 41.4176856884058 17.8411424903723  40.5948822463768 18.0738125802311  39.5822010869565 18  L 19.0169836956522 18  L 27.5760869565217 23.5462130937099  C 28.3161231884058 23.9929396662388  28.6861413043478 24.5513478818999  28.6861413043478 25.2214377406932  C 28.6861413043478 25.8915275994865  28.3161231884058 26.4499358151476  27.5760869565217 26.8966623876765  L 25.3851902173913 28.311296534018  C 24.6646286231884 28.770432178006  23.7882699275362 29  22.7561141304348 29  C 21.7434329710145 29  20.8573369565217 28.770432178006  20.0978260869565 28.311296534018  L 1.08084239130435 16.1752246469833  C 0.36028079710145 15.7160890029953  0 15.1576807873342  0 14.5  C 0 13.8547282841249  0.36028079710145 13.2901155327343  1.08084239130435 12.806161745828  L 20.0978260869565 0.707317073170732  C 20.8378623188406 0.235772357723575  21.7239583333333 0  22.7561141304348 0  C 23.7687952898551 0  24.6451539855073 0.235772357723575  25.3851902173913 0.707317073170732  L 27.5760869565217 2.08472400513479  C 28.3161231884058 2.55626872058194  28.6861413043478 3.12088147197261  28.6861413043478 3.7785622593068  C 28.6861413043478 4.43624304664099  28.3161231884058 5.00085579803166  27.5760869565217 5.47240051347882  L 19.0169836956522 11  L 39.5822010869565 11  C 40.5948822463768 10.9261874197689  41.4176856884058 11.1588575096277  42.0506114130435 11.6241976893453  Z " fill-rule="nonzero" fill="#b8741a" stroke="none" transform="matrix(1 0 0 1 101 390 )" />
    </g>
  </defs>
  <g transform="matrix(1 0 0 1 -100 -389 )">
    <use xlink:href="#widget22" filter="url(#filter21)" />
    <use xlink:href="#widget22" />
  </g>
</svg>