<?xml version="1.0" encoding="utf-8"?>
<svg version="1.1" xmlns:xlink="http://www.w3.org/1999/xlink" width="50px" height="39px" xmlns="http://www.w3.org/2000/svg">
  <defs>
    <filter x="208px" y="389px" width="50px" height="39px" filterUnits="userSpaceOnUse" id="filter23">
      <feOffset dx="4" dy="4" in="SourceAlpha" result="shadowOffsetInner" />
      <feGaussianBlur stdDeviation="2.5" in="shadowOffsetInner" result="shadowGaussian" />
      <feComposite in2="shadowGaussian" operator="atop" in="SourceAlpha" result="shadowComposite" />
      <feColorMatrix type="matrix" values="0 0 0 0 0  0 0 0 0 0  0 0 0 0 0  0 0 0 0.313725490196078 0  " in="shadowComposite" />
    </filter>
    <g id="widget24">
      <path d="M 38.9945652173913 12.8247753530167  C 39.6648550724638 13.2590928540864  40 13.8175010697475  40 14.5  C 40 15.1700898587933  39.6648550724638 15.734702610184  38.9945652173913 16.193838254172  L 21.304347826087 28.311296534018  C 20.5978260869565 28.770432178006  19.7735507246377 29  18.8315217391304 29  C 17.9076086956522 29  17.0923913043478 28.770432178006  16.3858695652174 28.311296534018  L 14.3478260869565 26.9152759948652  C 13.6594202898551 26.4437312794181  13.3152173913043 25.8791185280274  13.3152173913043 25.2214377406932  C 13.3152173913043 24.563756953359  13.6594202898551 23.9991442019683  14.3478260869565 23.5275994865212  L 22.3097826086957 18  L 3.17934782608696 18  C 2.23731884057971 18.0738125802311  1.47192028985507 17.8411424903723  0.883152173913043 17.3758023106547  C 0.294384057971014 16.9104621309371  0 16.3489516474112  0 15.691270860077  L 0 13.308729139923  C 0 12.6510483525888  0.294384057971014 12.0895378690629  0.883152173913043 11.6241976893453  C 1.47192028985507 11.1588575096277  2.23731884057971 10.9261874197689  3.17934782608696 11  L 22.3097826086957 11  L 14.3478260869565 5.45378690629012  C 13.6594202898551 5.00706033376123  13.3152173913043 4.44865211810013  13.3152173913043 3.7785622593068  C 13.3152173913043 3.10847240051348  13.6594202898551 2.55006418485238  14.3478260869565 2.10333761232349  L 16.3858695652174 0.707317073170732  C 17.0742753623188 0.235772357723575  17.8894927536232 0  18.8315217391304 0  C 19.7916666666667 0  20.6159420289855 0.235772357723575  21.304347826087 0.707317073170732  L 38.9945652173913 12.8247753530167  Z " fill-rule="nonzero" fill="#b8741a" stroke="none" transform="matrix(1 0 0 1 209 390 )" />
    </g>
  </defs>
  <g transform="matrix(1 0 0 1 -208 -389 )">
    <use xlink:href="#widget24" filter="url(#filter23)" />
    <use xlink:href="#widget24" />
  </g>
</svg>