<?xml version="1.0" encoding="utf-8"?>
<svg version="1.1" xmlns:xlink="http://www.w3.org/1999/xlink" width="60px" height="60px" xmlns="http://www.w3.org/2000/svg">
  <g transform="matrix(1 0 0 1 -14 -55 )">
    <path d="M 14 55  L 74 55  L 74 115  L 14 115  L 14 55  " fill-rule="nonzero" fill="#cccccc" stroke="none" />
    <path d="M 18 59  L 70 59  L 70 111  L 18 111  L 18 59  " fill-rule="nonzero" fill="#ffffff" stroke="none" />
    <path d="M 49.7 73  C 47.18 73  45.2 71.02  45.2 68.5  C 45.2 65.98  47.18 64  49.7 64  C 52.22 64  54.2 65.98  54.2 68.5  C 54.2 71.02  52.22 73  49.7 73  " fill-rule="nonzero" fill="#cccccc" stroke="none" />
    <path d="M 20 110  L 20 83.05  L 32.25 70.8  L 49.4 80.6  L 59.2 78.15  L 69 80.6  L 69 110  L 20 110  " fill-rule="nonzero" fill="#169bd5" stroke="none" />
  </g>
</svg>