<?xml version="1.0" encoding="utf-8"?>
<svg version="1.1" xmlns:xlink="http://www.w3.org/1999/xlink" width="90px" height="90px" xmlns="http://www.w3.org/2000/svg">
  <defs>
    <mask fill="white" id="clip25">
      <path d="M 187 153.5  C 162.3025 153.5  142.5 133.6975  142.5 109  L 142.5 109  C 142.5 84.3025  162.3025 64.5  187 64.5  L 187 64.5  C 211.6975 64.5  231.5 84.3025  231.5 109  L 231.5 109  C 231.5 133.6975  211.6975 153.5  187 153.5  L 187 153.5  " fill-rule="evenodd" />
    </mask>
  </defs>
  <g transform="matrix(1 0 0 1 -142 -64 )">
    <path d="M 142 64  L 232 64  L 232 154  L 142 154  L 142 64  " fill-rule="nonzero" fill="#cccccc" stroke="none" mask="url(#clip25)" />
    <path d="M 148 70  L 226 70  L 226 148  L 148 148  L 148 70  " fill-rule="nonzero" fill="#ffffff" stroke="none" mask="url(#clip25)" />
    <path d="M 195.55 91  C 191.77 91  188.8 88.03  188.8 84.25  C 188.8 80.47  191.77 77.5  195.55 77.5  C 199.33 77.5  202.3 80.47  202.3 84.25  C 202.3 88.03  199.33 91  195.55 91  " fill-rule="nonzero" fill="#cccccc" stroke="none" mask="url(#clip25)" />
    <path d="M 151 146  L 151 105.85  L 169.25 87.6  L 194.8 102.2  L 209.4 98.55  L 224 102.2  L 224 146  L 151 146  " fill-rule="nonzero" fill="#169bd5" stroke="none" mask="url(#clip25)" />
    <path d="M 187 151.5  C 163.4125 151.5  144.5 132.5875  144.5 109  L 144.5 109  C 144.5 85.4125  163.4125 66.5  187 66.5  L 187 66.5  C 210.5875 66.5  229.5 85.4125  229.5 109  L 229.5 109  C 229.5 132.5875  210.5875 151.5  187 151.5  L 187 151.5  Z " stroke-width="5" stroke="#aaaaaa" fill="none" mask="url(#clip25)" />
  </g>
</svg>