<?xml version="1.0" encoding="utf-8"?>
<svg version="1.1" xmlns:xlink="http://www.w3.org/1999/xlink" width="25px" height="25px" xmlns="http://www.w3.org/2000/svg">
  <g transform="matrix(1 0 0 1 -334 -299 )">
    <path d="M 24.3716032608696 11.0558408215661  C 24.7905344202899 11.4302524604193  25 11.9116388532306  25 12.5  C 25 13.0776636713736  24.7905344202899 13.5643988018828  24.3716032608696 13.9602053915276  L 13.3152173913043 24.4062901155327  C 12.8736413043478 24.8020967051776  12.3584692028986 25  11.7697010869565 25  C 11.1922554347826 25  10.6827445652174 24.8020967051776  10.2411684782609 24.4062901155327  L 8.96739130434783 23.2028241335045  C 8.53713768115942 22.7963200684638  8.32201086956522 22.3095849379546  8.32201086956522 21.7426187419769  C 8.32201086956522 21.1756525459991  8.53713768115942 20.6889174154899  8.96739130434783 20.2824133504493  L 13.9436141304348 15.5808729139923  L 1.98709239130435 15.5808729139923  C 1.39832427536232 15.5808729139923  0.91995018115942 15.3802952503209  0.551970108695652 14.9791399229782  C 0.183990036231884 14.5779845956354  0 14.0939238339752  0 13.5269576379974  L 0 11.4730423620026  C 0 10.9060761660248  0.183990036231884 10.4220154043646  0.551970108695652 10.0208600770218  C 0.91995018115942 9.61970474967907  1.39832427536232 9.4191270860077  1.98709239130435 9.4191270860077  L 13.9436141304348 9.4191270860077  L 8.96739130434783 4.701540436457  C 8.53713768115942 4.31643132220796  8.32201086956522 3.83504492939666  8.32201086956522 3.25738125802311  C 8.32201086956522 2.67971758664955  8.53713768115942 2.19833119383825  8.96739130434783 1.81322207958922  L 10.2411684782609 0.609756097560976  C 10.6714221014493 0.203252032520324  11.1809329710145 0  11.7697010869565 0  C 12.3697916666667 0  12.8849637681159 0.203252032520324  13.3152173913043 0.609756097560976  L 24.3716032608696 11.0558408215661  Z " fill-rule="nonzero" fill="#d7d7d7" stroke="none" transform="matrix(1 0 0 1 334 299 )" />
  </g>
</svg>