<?xml version="1.0" encoding="utf-8"?>
<svg version="1.1" xmlns:xlink="http://www.w3.org/1999/xlink" width="16px" height="17px" xmlns="http://www.w3.org/2000/svg">
  <g transform="matrix(1 0 0 1 -197 -126 )">
    <path d="M 11.6363636363636 0.910714285714286  L 11.6363636363636 0.303571428571429  C 11.6363636363636 0.21502976190476  11.6704545454545 0.142299107142857  11.7386363636364 0.0853794642857137  C 11.8068181818182 0.0284598214285706  11.8939393939394 0  12 0  L 15.2727272727273 0  C 15.469696969697 0  15.6401515151515 0.0600818452380967  15.7840909090909 0.180245535714286  C 15.9280303030303 0.300409226190474  16 0.442708333333333  16 0.607142857142857  L 16 3.33928571428571  C 16 3.42782738095238  15.9659090909091 3.50055803571429  15.8977272727273 3.55747767857143  C 15.8295454545455 3.61439732142857  15.7424242424242 3.64285714285714  15.6363636363636 3.64285714285714  L 14.9090909090909 3.64285714285714  C 14.8030303030303 3.64285714285714  14.7159090909091 3.61439732142857  14.6477272727273 3.55747767857143  C 14.5795454545455 3.50055803571429  14.5454545454545 3.42782738095238  14.5454545454545 3.33928571428571  L 14.5454545454545 2.06808035714286  L 11.6590909090909 4.48716517857143  C 12.6136363636364 5.48642113095238  13.0909090909091 6.62165178571429  13.0909090909091 7.89285714285714  C 13.0909090909091 9.29055059523809  12.532196969697 10.5064174107143  11.4147727272727 11.5404575892857  C 10.2973484848485 12.5744977678571  8.91666666666667 13.1674107142857  7.27272727272727 13.3191964285714  L 7.27272727272727 14.5714285714286  L 8.36363636363636 14.5714285714286  C 8.46969696969697 14.5714285714286  8.55681818181818 14.5998883928571  8.625 14.6568080357143  C 8.69318181818182 14.7137276785714  8.72727272727273 14.7864583333333  8.72727272727273 14.875  L 8.72727272727273 15.4821428571429  C 8.72727272727273 15.5706845238095  8.69318181818182 15.6434151785714  8.625 15.7003348214286  C 8.55681818181818 15.7572544642857  8.46969696969697 15.7857142857143  8.36363636363636 15.7857142857143  L 7.27272727272727 15.7857142857143  L 7.27272727272727 16.6964285714286  C 7.27272727272727 16.7849702380952  7.23863636363636 16.8577008928571  7.17045454545455 16.9146205357143  C 7.10227272727273 16.9715401785714  7.01515151515152 17  6.90909090909091 17  L 6.18181818181818 17  C 6.07575757575758 17  5.98863636363636 16.9715401785714  5.92045454545455 16.9146205357143  C 5.85227272727273 16.8577008928571  5.81818181818182 16.7849702380952  5.81818181818182 16.6964285714286  L 5.81818181818182 15.7857142857143  L 4.72727272727273 15.7857142857143  C 4.62121212121212 15.7857142857143  4.53409090909091 15.7572544642857  4.46590909090909 15.7003348214286  C 4.39772727272727 15.6434151785714  4.36363636363636 15.5706845238095  4.36363636363636 15.4821428571429  L 4.36363636363636 14.875  C 4.36363636363636 14.7864583333333  4.39772727272727 14.7137276785714  4.46590909090909 14.6568080357143  C 4.53409090909091 14.5998883928571  4.62121212121212 14.5714285714286  4.72727272727273 14.5714285714286  L 5.81818181818182 14.5714285714286  L 5.81818181818182 13.3191964285714  C 4.68939393939394 13.218005952381  3.66477272727273 12.8922991071429  2.74431818181818 12.3420758928571  C 1.82386363636364 11.7918526785714  1.11742424242424 11.0851004464286  0.625 10.2218191964286  C 0.132575757575758 9.35853794642857  -0.0681818181818182 8.43675595238095  0.0227272727272727 7.45647321428571  C 0.143939393939394 6.16629464285714  0.75 5.04845610119047  1.84090909090909 4.10295758928571  C 2.93181818181818 3.15745907738095  4.24621212121212 2.61197916666667  5.78409090909091 2.46651785714286  C 6.6780303030303 2.37797619047619  7.54166666666667 2.43805803571429  8.375 2.64676339285714  C 9.20833333333333 2.85546875  9.95833333333333 3.18117559523809  10.625 3.62388392857143  L 13.5227272727273 1.21428571428571  L 12 1.21428571428571  C 11.8939393939394 1.21428571428571  11.8068181818182 1.18582589285714  11.7386363636364 1.12890625  C 11.6704545454545 1.07198660714286  11.6363636363636 0.999255952380952  11.6363636363636 0.910714285714286  Z M 2.94886363636364 10.8953683035714  C 3.94507575757576 11.7270275297619  5.14393939393939 12.1428571428571  6.54545454545455 12.1428571428571  C 7.9469696969697 12.1428571428571  9.14583333333333 11.7270275297619  10.1420454545455 10.8953683035714  C 11.1382575757576 10.063709077381  11.6363636363636 9.06287202380952  11.6363636363636 7.89285714285714  C 11.6363636363636 6.72284226190476  11.1382575757576 5.72200520833333  10.1420454545455 4.89034598214286  C 9.14583333333333 4.05868675595238  7.9469696969697 3.64285714285714  6.54545454545455 3.64285714285714  C 5.14393939393939 3.64285714285714  3.94507575757576 4.05868675595238  2.94886363636364 4.89034598214286  C 1.95265151515152 5.72200520833333  1.45454545454545 6.72284226190476  1.45454545454545 7.89285714285714  C 1.45454545454545 9.06287202380952  1.95265151515152 10.063709077381  2.94886363636364 10.8953683035714  Z " fill-rule="nonzero" fill="#ffff80" stroke="none" transform="matrix(1 0 0 1 197 126 )" />
  </g>
</svg>