<?xml version="1.0" encoding="utf-8"?>
<svg version="1.1" xmlns:xlink="http://www.w3.org/1999/xlink" width="375px" height="170px" xmlns="http://www.w3.org/2000/svg">
  <g>
    <path d="M 0 0  L 375 0  L 375 170  L 0 170  L 0 0  " fill-rule="nonzero" fill="#cccccc" stroke="none" />
    <path d="M 12 12  L 363 12  L 363 158  L 12 158  L 12 12  " fill-rule="nonzero" fill="#ffffff" stroke="none" />
    <path d="M 207.75 51  C 200.61 51  195 45.39  195 38.25  C 195 31.11  200.61 25.5  207.75 25.5  C 214.89 25.5  220.5 31.11  220.5 38.25  C 220.5 45.39  214.89 51  207.75 51  " fill-rule="nonzero" fill="#cccccc" stroke="none" />
    <path d="M 17 154  L 17 78.65  L 102.5 44.4  L 222.2 116.736  L 290.6 64.95  L 359 116.736  L 359 154  L 17 154  " fill-rule="nonzero" fill="#169bd5" stroke="none" />
  </g>
</svg>