<?xml version="1.0" encoding="utf-8"?>
<svg version="1.1" xmlns:xlink="http://www.w3.org/1999/xlink" width="118px" height="63px" xmlns="http://www.w3.org/2000/svg">
  <g transform="matrix(1 0 0 1 -244 -349 )">
    <path d="M 244 349  L 362 349  L 362 412  L 244 412  L 244 349  " fill-rule="nonzero" fill="#cccccc" stroke="none" />
    <path d="M 248 353  L 358 353  L 358 408  L 248 408  L 248 353  " fill-rule="nonzero" fill="#ffffff" stroke="none" />
    <path d="M 310.085 367.9  C 307.439 367.9  305.36 365.821  305.36 363.175  C 305.36 360.529  307.439 358.45  310.085 358.45  C 312.731 358.45  314.81 360.529  314.81 363.175  C 314.81 365.821  312.731 367.9  310.085 367.9  " fill-rule="nonzero" fill="#cccccc" stroke="none" />
    <path d="M 250 407  L 250 378.4  L 276.75 365.4  L 314.2 390.342372881356  L 335.6 373.2  L 357 390.342372881356  L 357 407  L 250 407  " fill-rule="nonzero" fill="#169bd5" stroke="none" />
  </g>
</svg>