<?xml version="1.0" encoding="utf-8"?>
<svg version="1.1" xmlns:xlink="http://www.w3.org/1999/xlink" width="18px" height="10px" xmlns="http://www.w3.org/2000/svg">
  <g transform="matrix(1 0 0 1 -113 -392 )">
    <path d="M 13.3643973214286 7.83420138888889  C 14.70703125 7.13107638888889  15.8236607142857 6.18634259259259  16.7142857142857 5  C 15.6964285714286 3.63425925925926  14.4207589285714 2.61284722222222  12.8872767857143 1.93576388888889  C 13.2957589285714 2.53761574074074  13.5 3.18865740740741  13.5 3.88888888888889  C 13.5 4.95949074074074  13.0597098214286 5.87528935185185  12.1791294642857 6.63628472222222  C 11.2985491071429 7.39728009259259  10.2388392857143 7.77777777777778  9 7.77777777777778  C 7.76116071428572 7.77777777777778  6.70145089285714 7.39728009259259  5.82087053571429 6.63628472222222  C 4.94029017857143 5.87528935185185  4.5 4.95949074074074  4.5 3.88888888888889  C 4.5 3.18865740740741  4.70424107142857 2.53761574074074  5.11272321428571 1.93576388888889  C 3.57924107142857 2.61284722222222  2.30357142857143 3.63425925925926  1.28571428571429 5  C 2.17633928571429 6.18634259259259  3.29296875 7.13107638888889  4.63560267857143 7.83420138888889  C 5.97823660714286 8.53732638888889  7.43303571428571 8.88888888888889  9 8.88888888888889  C 10.5669642857143 8.88888888888889  12.0217633928571 8.53732638888889  13.3643973214286 7.83420138888889  Z M 9.34151785714286 1.96180555555556  C 9.43526785714286 1.88078703703704  9.48214285714286 1.78240740740741  9.48214285714286 1.66666666666667  C 9.48214285714286 1.55092592592593  9.43526785714286 1.4525462962963  9.34151785714286 1.37152777777778  C 9.24776785714286 1.29050925925926  9.13392857142857 1.25  9 1.25  C 8.16294642857143 1.25  7.44475446428572 1.50896990740741  6.84542410714286 2.02690972222222  C 6.24609375 2.54484953703704  5.94642857142857 3.16550925925926  5.94642857142857 3.88888888888889  C 5.94642857142857 4.00462962962963  5.99330357142857 4.10300925925926  6.08705357142857 4.18402777777778  C 6.18080357142857 4.2650462962963  6.29464285714286 4.30555555555556  6.42857142857143 4.30555555555556  C 6.5625 4.30555555555556  6.67633928571429 4.2650462962963  6.77008928571429 4.18402777777778  C 6.86383928571429 4.10300925925926  6.91071428571429 4.00462962962963  6.91071428571429 3.88888888888889  C 6.91071428571429 3.3912037037037  7.11495535714286 2.96585648148148  7.5234375 2.61284722222222  C 7.93191964285714 2.25983796296296  8.42410714285714 2.08333333333333  9 2.08333333333333  C 9.13392857142857 2.08333333333333  9.24776785714286 2.04282407407407  9.34151785714286 1.96180555555556  Z M 17.7991071428571 4.40104166666667  C 17.9330357142857 4.60358796296296  18 4.80324074074074  18 5  C 18 5.19675925925926  17.9330357142857 5.39641203703704  17.7991071428571 5.59895833333333  C 16.8616071428571 6.92997685185185  15.6010044642857 7.99623842592593  14.0172991071429 8.79774305555556  C 12.43359375 9.59924768518519  10.7611607142857 10  9 10  C 7.23883928571429 10  5.56640625 9.59780092592593  3.98270089285714 8.79340277777778  C 2.39899553571429 7.98900462962963  1.13839285714286 6.92418981481481  0.200892857142857 5.59895833333333  C 0.0669642857142857 5.39641203703704  0 5.19675925925926  0 5  C 0 4.80324074074074  0.0669642857142857 4.60358796296296  0.200892857142857 4.40104166666667  C 1.13839285714286 3.07581018518519  2.39899553571429 2.01099537037037  3.98270089285714 1.20659722222222  C 5.56640625 0.402199074074073  7.23883928571429 0  9 0  C 10.7611607142857 0  12.43359375 0.402199074074073  14.0172991071429 1.20659722222222  C 15.6010044642857 2.01099537037037  16.8616071428571 3.07581018518519  17.7991071428571 4.40104166666667  Z " fill-rule="nonzero" fill="#7f7f7f" stroke="none" transform="matrix(1 0 0 1 113 392 )" />
  </g>
</svg>