<?xml version="1.0" encoding="utf-8"?>
<svg version="1.1" xmlns:xlink="http://www.w3.org/1999/xlink" width="86px" height="102px" xmlns="http://www.w3.org/2000/svg">
  <g transform="matrix(1 0 0 1 -12 -54 )">
    <path d="M 12 54  L 98 54  L 98 156  L 12 156  L 12 54  " fill-rule="nonzero" fill="#cccccc" stroke="none" />
    <path d="M 18 60  L 92 60  L 92 150  L 18 150  L 18 60  " fill-rule="nonzero" fill="#ffffff" stroke="none" />
    <path d="M 63.17 82.2  C 59.558 82.2  56.72 79.362  56.72 75.75  C 56.72 72.138  59.558 69.3  63.17 69.3  C 66.782 69.3  69.62 72.138  69.62 75.75  C 69.62 79.362  66.782 82.2  63.17 82.2  " fill-rule="nonzero" fill="#cccccc" stroke="none" />
    <path d="M 20 148  L 20 100.7  L 37.5 79.2  L 62 96.4  L 76 92.1  L 90 96.4  L 90 148  L 20 148  " fill-rule="nonzero" fill="#169bd5" stroke="none" />
  </g>
</svg>