<?xml version="1.0" encoding="utf-8"?>
<svg version="1.1" xmlns:xlink="http://www.w3.org/1999/xlink" width="21px" height="20px" xmlns="http://www.w3.org/2000/svg">
  <g transform="matrix(1 0 0 1 -338 -11 )">
    <path d="M 12.87890625 12.265625  C 13.9852764423077 11.2119391025641  14.5384615384615 9.94391025641026  14.5384615384615 8.46153846153846  C 14.5384615384615 6.97916666666667  13.9852764423077 5.71113782051282  12.87890625 4.65745192307692  C 11.7725360576923 3.60376602564102  10.4411057692308 3.07692307692308  8.88461538461539 3.07692307692308  C 7.328125 3.07692307692308  5.99669471153846 3.60376602564102  4.89032451923077 4.65745192307692  C 3.78395432692308 5.71113782051282  3.23076923076923 6.97916666666667  3.23076923076923 8.46153846153846  C 3.23076923076923 9.94391025641026  3.78395432692308 11.2119391025641  4.89032451923077 12.265625  C 5.99669471153846 13.3193108974359  7.328125 13.8461538461538  8.88461538461539 13.8461538461538  C 10.4411057692308 13.8461538461538  11.7725360576923 13.3193108974359  12.87890625 12.265625  Z M 20.5330528846154 17.3798076923077  C 20.8443509615385 17.6762820512821  21 18.036858974359  21 18.4615384615385  C 21 18.8782051282051  20.8401442307692 19.2387820512821  20.5204326923077 19.5432692307692  C 20.2007211538462 19.8477564102564  19.8221153846154 20  19.3846153846154 20  C 18.9302884615385 20  18.5516826923077 19.8477564102564  18.2487980769231 19.5432692307692  L 13.9200721153846 15.4326923076923  C 12.4140625 16.4262820512821  10.7355769230769 16.9230769230769  8.88461538461539 16.9230769230769  C 7.68149038461539 16.9230769230769  6.53094951923077 16.7007211538462  5.43299278846154 16.2560096153846  C 4.33503605769231 15.8112980769231  3.38852163461538 15.2103365384615  2.59344951923077 14.453125  C 1.79837740384615 13.6959134615385  1.16736778846154 12.7944711538462  0.700420673076923 11.7487980769231  C 0.233473557692308 10.703125  0 9.60737179487179  0 8.46153846153846  C 0 7.31570512820513  0.233473557692308 6.21995192307692  0.700420673076923 5.17427884615385  C 1.16736778846154 4.12860576923077  1.79837740384615 3.22716346153846  2.59344951923077 2.46995192307692  C 3.38852163461538 1.71274038461539  4.33503605769231 1.11177884615385  5.43299278846154 0.667067307692308  C 6.53094951923077 0.222355769230769  7.68149038461539 0  8.88461538461539 0  C 10.0877403846154 0  11.23828125 0.222355769230769  12.3362379807692 0.667067307692308  C 13.4341947115385 1.11177884615385  14.3807091346154 1.71274038461539  15.17578125 2.46995192307692  C 15.9708533653846 3.22716346153846  16.6018629807692 4.12860576923077  17.0688100961538 5.17427884615385  C 17.5357572115385 6.21995192307692  17.7692307692308 7.31570512820513  17.7692307692308 8.46153846153846  C 17.7692307692308 10.224358974359  17.2475961538462 11.8229166666667  16.2043269230769 13.2572115384615  L 20.5330528846154 17.3798076923077  Z " fill-rule="nonzero" fill="#7f7f7f" stroke="none" transform="matrix(1 0 0 1 338 11 )" />
  </g>
</svg>