<?xml version="1.0" encoding="utf-8"?>
<svg version="1.1" xmlns:xlink="http://www.w3.org/1999/xlink" width="170px" height="170px" xmlns="http://www.w3.org/2000/svg">
  <g transform="matrix(1 0 0 1 -97 -67 )">
    <path d="M 97 67  L 267 67  L 267 237  L 97 237  L 97 67  " fill-rule="nonzero" fill="#cccccc" stroke="none" />
    <path d="M 109 79  L 255 79  L 255 225  L 109 225  L 109 79  " fill-rule="nonzero" fill="#ffffff" stroke="none" />
    <path d="M 198.15 118  C 191.01 118  185.4 112.39  185.4 105.25  C 185.4 98.11  191.01 92.5  198.15 92.5  C 205.29 92.5  210.9 98.11  210.9 105.25  C 210.9 112.39  205.29 118  198.15 118  " fill-rule="nonzero" fill="#cccccc" stroke="none" />
    <path d="M 114 221  L 114 145.65  L 148.25 111.4  L 196.2 138.8  L 223.6 131.95  L 251 138.8  L 251 221  L 114 221  " fill-rule="nonzero" fill="#169bd5" stroke="none" />
  </g>
</svg>