<?xml version="1.0" encoding="utf-8"?>
<svg version="1.1" xmlns:xlink="http://www.w3.org/1999/xlink" width="42px" height="32px" xmlns="http://www.w3.org/2000/svg">
  <g transform="matrix(1 0 0 1 -24 -88 )">
    <path d="M 24 88  L 66 88  L 66 120  L 24 120  L 24 88  " fill-rule="nonzero" fill="#cccccc" stroke="none" />
    <path d="M 26 90  L 64 90  L 64 118  L 26 118  L 26 90  " fill-rule="nonzero" fill="#ffffff" stroke="none" />
    <path d="M 48.24 97.6  C 46.896 97.6  45.84 96.544  45.84 95.2  C 45.84 93.856  46.896 92.8  48.24 92.8  C 49.584 92.8  50.64 93.856  50.64 95.2  C 50.64 96.544  49.584 97.6  48.24 97.6  " fill-rule="nonzero" fill="#cccccc" stroke="none" />
    <path d="M 27 117  L 27 102.7  L 36 96.2  L 48.6 105.114285714286  L 55.8 100.1  L 63 105.114285714286  L 63 117  L 27 117  " fill-rule="nonzero" fill="#169bd5" stroke="none" />
  </g>
</svg>