<?xml version="1.0" encoding="utf-8"?>
<svg version="1.1" xmlns:xlink="http://www.w3.org/1999/xlink" width="344px" height="170px" xmlns="http://www.w3.org/2000/svg">
  <g transform="matrix(1 0 0 1 -15 -55 )">
    <path d="M 15 55  L 359 55  L 359 225  L 15 225  L 15 55  " fill-rule="nonzero" fill="#cccccc" stroke="none" />
    <path d="M 27 67  L 347 67  L 347 213  L 27 213  L 27 67  " fill-rule="nonzero" fill="#ffffff" stroke="none" />
    <path d="M 206.63 106  C 199.49 106  193.88 100.39  193.88 93.25  C 193.88 86.11  199.49 80.5  206.63 80.5  C 213.77 80.5  219.38 86.11  219.38 93.25  C 219.38 100.39  213.77 106  206.63 106  " fill-rule="nonzero" fill="#cccccc" stroke="none" />
    <path d="M 32 209  L 32 133.65  L 109.75 99.4  L 218.6 168.377906976744  L 280.8 119.95  L 343 168.377906976744  L 343 209  L 32 209  " fill-rule="nonzero" fill="#169bd5" stroke="none" />
  </g>
</svg>