<?xml version="1.0" encoding="utf-8"?>
<svg version="1.1" xmlns:xlink="http://www.w3.org/1999/xlink" width="16px" height="16px" xmlns="http://www.w3.org/2000/svg">
  <g transform="matrix(1 0 0 1 -15 -13 )">
    <path d="M 4.203125 7.53246753246753  L 15.296875 0.155844155844155  C 15.4947916666667 0.0242424242424235  15.6614583333333 -0.0207792207792217  15.796875 0.0207792207792199  C 15.9322916666667 0.0623376623376615  16 0.173160173160172  16 0.353246753246752  L 16 15.6467532467532  C 16 15.8268398268398  15.9322916666667 15.9376623376623  15.796875 15.9792207792208  C 15.6614583333333 16.0207792207792  15.4947916666667 15.9757575757576  15.296875 15.8441558441558  L 4.203125 8.46753246753247  C 4.109375 8.4051948051948  4.04166666666667 8.33939393939394  4 8.27012987012987  L 4 15.3142857142857  C 4 15.4943722943723  3.90104166666667 15.6502164502164  3.703125 15.7818181818182  C 3.50520833333333 15.9134199134199  3.27083333333333 15.9792207792208  3 15.9792207792208  L 1 15.9792207792208  C 0.729166666666667 15.9792207792208  0.494791666666667 15.9134199134199  0.296875 15.7818181818182  C 0.0989583333333333 15.6502164502164  0 15.4943722943723  0 15.3142857142857  L 0 0.685714285714285  C 0 0.505627705627704  0.0989583333333333 0.349783549783549  0.296875 0.218181818181819  C 0.494791666666667 0.086580086580085  0.729166666666667 0.0207792207792199  1 0.0207792207792199  L 3 0.0207792207792199  C 3.27083333333333 0.0207792207792199  3.50520833333333 0.086580086580085  3.703125 0.218181818181819  C 3.90104166666667 0.349783549783549  4 0.505627705627704  4 0.685714285714285  L 4 7.72987012987013  C 4.04166666666667 7.66060606060606  4.109375 7.5948051948052  4.203125 7.53246753246753  Z " fill-rule="nonzero" fill="#aaaaaa" stroke="none" transform="matrix(1 0 0 1 15 13 )" />
  </g>
</svg>